
<svg xmlns="http://www.w3.org/2000/svg" viewBox="0 0 140 140"><style>.circulo{fill:#222221}</style>

<defs>
    <mask id="behance">
       <rect fill="white" width="140" height="140"/> 
       <path fill="black" d="M74.3 94.3c2.7-3.3 4.3-7.5 4.3-12 0-10.5-8.5-19-19-19H31.2v71.8H60c12.7 0 22.9-10.3 22.9-22.9 0-7.3-3.4-13.7-8.6-17.9zm-31.1-19h16.5c3.8 0 7 3.1 7 7s-3.1 7-7 7H43.2v-14zm16.7 47.8H43.2v-21.9H60c6 0 10.9 4.9 10.9 10.9 0 6.1-4.9 11-11 11zM109.7 125.1c-7 0-11-4.8-12.2-10.4h37.3l-.4-6.4c-.9-14.5-11.1-24.6-24.6-24.6-14.4 0-24.8 11.2-24.8 26.7s10.4 26.7 24.7 26.7c11.1 0 20.3-7.1 23.5-18h-13c-2.2 3.8-5.9 6-10.5 6zm0-29.4c5.7 0 9.2 3.1 11 7H98.6c1.9-4.1 5.5-7 11.1-7zM87.5 67.6h44.7v12H87.5z"/> 
    </mask>
</defs>

<circle mask="url(#behance)" cx="70" cy="70" r="70" class="circulo"/></svg>