
<svg xmlns="https://www.w3.org/2000/svg" viewBox="0 0 140 140"><style>.circulo{fill:#222221}</style>

<defs>
    <mask id="instagram">
        <rect fill="white" width="140" height="140"/>
        <path fill="black" d="M4.3 8.6v88.1h88.1V8.6H4.3zm55.5 44.3c0 6.2-5 11.2-11.2 11.2-6.2 0-11.2-5-11.2-11.2 0-2.2.7-4.3 1.8-6 2-3.1 5.5-5.2 9.4-5.2 3.9 0 7.4 2.1 9.4 5.2 1.1 1.7 1.8 3.8 1.8 6zm20.6-18H66.3V20.6h14.2v14.3zM16.3 84.7V46.9h9.9c-.5 1.9-.8 3.9-.8 6 0 12.8 10.4 23.2 23.2 23.2 12.8 0 23.2-10.4 23.2-23.2 0-2.1-.3-4.1-.8-6h9.4v37.8H16.3z"/>
    </mask>
    <title>instagram-icon</title>
</defs>

<circle mask="url(#instagram)" cx="70" cy="70" r="70" class="circulo"/></svg>
