
<svg version="1.1"
	 xmlns="https://www.w3.org/2000/svg" xmlns:xlink="https://www.w3.org/1999/xlink" xmlns:a="https://ns.adobe.com/AdobeSVGViewerExtensions/3.0/"
	 x="0px" y="0px" width="37px" height="52.3px" viewBox="0 0 37 52.3" style="enable-background:new 0 0 37 52.3;"
	 xml:space="preserve">
<style type="text/css">
	.st0{fill:#FFFFFF;stroke:#000000;stroke-width:1.9244;stroke-linecap:round;stroke-linejoin:round;stroke-miterlimit:10;}
</style>
<defs>
</defs>
<g>
	<path class="st0" d="M32.2,23.5l-3.8-9.1c-0.6-1.3-2.1-2.1-3.4-1.5c-1.4,0.5-2,2.1-1.5,3.5l3,7.3l-4-9.7c-0.6-1.3-2.1-2.1-3.4-1.5
		c-1.4,0.5-2,2.1-1.5,3.5l3.2,7.7l-4.2-10.1c-0.6-1.3-2.1-2.1-3.4-1.5c-1.4,0.5-2,2.1-1.5,3.5l3.7,8.9L6.4,2.8
		C5.8,1.4,4.3,0.6,2.8,1.1C1.3,1.7,0.6,3.4,1.2,4.9l12.4,29.8l-4.9-5.5c-1.3-1.5-3.6-1.5-4.9,0l0,0c-1.1,1.2-1.2,3.1-0.1,4.4
		l13.7,17.9L36,43.6L32.2,23.5z"/>
</g>
</svg>


