<svg id="Capa_1" data-name="Capa 1" xmlns="http://www.w3.org/2000/svg" xmlns:xlink="http://www.w3.org/1999/xlink" viewBox="0 0 87.89 87.89"><defs><style>.cls-1{fill:url(#Degradado_sin_nombre_14);}.cls-2,.cls-5,.cls-6{fill:none;}.cls-2,.cls-5,.cls-6,.cls-7,.cls-8{stroke:#060606;stroke-miterlimit:10;}.cls-2,.cls-5{stroke-width:2px;}.cls-3{fill:#060606;}.cls-4,.cls-7,.cls-8{fill:#fff;}.cls-5{stroke-linecap:round;}.cls-6,.cls-7{stroke-width:3px;}.cls-8{stroke-width:0.5px;}</style><linearGradient id="Degradado_sin_nombre_14" x1="8.7" y1="43.95" x2="79.2" y2="43.95" gradientUnits="userSpaceOnUse"><stop offset="0" stop-color="#da8e99"/><stop offset="0.19" stop-color="#d98c94"/><stop offset="0.41" stop-color="#d88586"/><stop offset="0.65" stop-color="#d57a6e"/><stop offset="0.9" stop-color="#d16a4d"/><stop offset="1" stop-color="#cf633e"/></linearGradient></defs><title>Logo</title><circle class="cls-1" cx="43.95" cy="43.95" r="35.25"/><circle class="cls-2" cx="24.35" cy="42.26" r="5.76"/><circle class="cls-3" cx="24.24" cy="42.79" r="3.55"/><path class="cls-4" d="M22.84,31.77a8.38,8.38,0,0,1,8.24,6.84c-7.14,0-12.39-.35-16.07-1.48A8.37,8.37,0,0,1,22.84,31.77Z"/><path class="cls-2" d="M31.08,38.61a8.27,8.27,0,0,1,.14,1.53,8.39,8.39,0,1,1-16.77,0,8.22,8.22,0,0,1,.56-3,8.39,8.39,0,0,1,16.07,1.48Z"/><path class="cls-5" d="M11.12,35.23A11.72,11.72,0,0,0,15,37.14c3.67,1.12,8.93,1.48,16.07,1.48"/><circle class="cls-6" cx="22.23" cy="39.95" r="17.75"/><circle class="cls-6" cx="65.64" cy="39.95" r="17.75"/><path class="cls-7" d="M38.69,33.3a15.6,15.6,0,0,1,10.5,0"/><line class="cls-6" x1="6.74" y1="31.29" x2="1.25" y2="31.29"/><line class="cls-6" x1="81.15" y1="31.29" x2="86.65" y2="31.29"/><circle class="cls-4" cx="3.09" cy="31.29" r="0.55"/><circle class="cls-4" cx="84.8" cy="31.29" r="0.64"/><circle class="cls-3" cx="24.24" cy="42.79" r="3.55"/><circle class="cls-8" cx="26.24" cy="41.33" r="2.01"/></svg>